<mxfile host="65bd71144e">
    <diagram id="B66Y9nA1u1WOs61TR2gW" name="Page-1">
        <mxGraphModel dx="2051" dy="1379" grid="1" gridSize="10" guides="1" tooltips="1" connect="1" arrows="1" fold="1" page="1" pageScale="1" pageWidth="850" pageHeight="1100" math="0" shadow="0">
            <root>
                <mxCell id="0"/>
                <mxCell id="1" parent="0"/>
                <mxCell id="21" style="edgeStyle=none;html=1;exitX=1;exitY=0.5;exitDx=0;exitDy=0;entryX=0;entryY=0.5;entryDx=0;entryDy=0;endSize=16;endArrow=open;endFill=0;" edge="1" parent="1" source="19" target="20">
                    <mxGeometry relative="1" as="geometry"/>
                </mxCell>
                <mxCell id="19" value="Context Free Grammar" style="text;html=1;strokeColor=none;fillColor=none;align=center;verticalAlign=middle;whiteSpace=wrap;rounded=0;fontSize=30;" vertex="1" parent="1">
                    <mxGeometry x="-70" y="410" width="190" height="70" as="geometry"/>
                </mxCell>
                <mxCell id="20" value="LL(1) Grammar" style="text;html=1;strokeColor=none;fillColor=none;align=center;verticalAlign=middle;whiteSpace=wrap;rounded=0;fontSize=30;" vertex="1" parent="1">
                    <mxGeometry x="350" y="410" width="145" height="70" as="geometry"/>
                </mxCell>
                <mxCell id="22" value="Left Factoring&lt;br style=&quot;font-size: 15px;&quot;&gt;Substitution&lt;br style=&quot;font-size: 15px;&quot;&gt;Left Recursion Removal" style="text;html=1;strokeColor=none;fillColor=none;align=center;verticalAlign=middle;whiteSpace=wrap;rounded=0;fontSize=15;" vertex="1" parent="1">
                    <mxGeometry x="120" y="450" width="230" height="70" as="geometry"/>
                </mxCell>
                <mxCell id="27" style="edgeStyle=none;html=1;exitX=0.5;exitY=1;exitDx=0;exitDy=0;entryX=0.5;entryY=0;entryDx=0;entryDy=0;fontSize=30;fontColor=#80FF00;endArrow=open;endFill=0;endSize=16;" edge="1" parent="1" source="28" target="32">
                    <mxGeometry relative="1" as="geometry"/>
                </mxCell>
                <mxCell id="28" value="Recursive Descent or DFA based parser" style="rounded=1;whiteSpace=wrap;html=1;fontSize=30;fillColor=#D80073;fontColor=#ffffff;strokeColor=#3700CC;gradientColor=#80FF00;gradientDirection=south;" vertex="1" parent="1">
                    <mxGeometry x="535" y="395" width="310" height="100" as="geometry"/>
                </mxCell>
                <mxCell id="29" style="edgeStyle=none;html=1;exitX=1;exitY=0.5;exitDx=0;exitDy=0;entryX=0;entryY=0.5;entryDx=0;entryDy=0;fontSize=30;endArrow=open;endFill=0;endSize=16;" edge="1" parent="1" target="28">
                    <mxGeometry relative="1" as="geometry">
                        <mxPoint x="495" y="445" as="sourcePoint"/>
                    </mxGeometry>
                </mxCell>
                <mxCell id="30" style="edgeStyle=none;html=1;exitX=0.5;exitY=1;exitDx=0;exitDy=0;entryX=0.5;entryY=0;entryDx=0;entryDy=0;fontSize=30;fontColor=#80FF00;endArrow=open;endFill=0;endSize=16;" edge="1" parent="1" source="31" target="28">
                    <mxGeometry relative="1" as="geometry"/>
                </mxCell>
                <mxCell id="31" value="Tokens" style="text;html=1;strokeColor=none;fillColor=none;align=center;verticalAlign=middle;whiteSpace=wrap;rounded=0;fontSize=30;fontColor=#D80073;" vertex="1" parent="1">
                    <mxGeometry x="635" y="300" width="110" height="50" as="geometry"/>
                </mxCell>
                <mxCell id="32" value="Parse Tree/AST" style="text;html=1;strokeColor=none;fillColor=none;align=center;verticalAlign=middle;whiteSpace=wrap;rounded=0;fontSize=30;fontColor=#80FF00;" vertex="1" parent="1">
                    <mxGeometry x="567.5" y="540" width="245" height="50" as="geometry"/>
                </mxCell>
            </root>
        </mxGraphModel>
    </diagram>
</mxfile>